<svg width="251" height="32" viewBox="0 0 251 32" fill="none" xmlns="http://www.w3.org/2000/svg">
<path fill-rule="evenodd" clip-rule="evenodd" d="M23.54 0H9.46C4.51153 0 0.5 4.01153 0.5 8.96V23.04C0.5 27.9885 4.51153 32 9.46 32H23.54C28.4885 32 32.5 27.9885 32.5 23.04V8.96C32.5 4.01153 28.4885 0 23.54 0ZM15.6527 7.6842C15.297 6.31585 16.1178 4.91816 17.4862 4.56239C18.8545 4.20662 20.2522 5.02748 20.608 6.39583C20.6531 6.56926 20.795 6.8743 21.1967 7.37308C21.6495 7.93524 22.1612 8.44862 22.671 8.96014C22.7568 9.0462 22.8425 9.13221 22.9279 9.21839C24.7167 11.0024 27.5389 13.8171 27.5389 18.1114C27.5389 21.9329 25.2711 25.2158 22.0053 26.6901C22.2285 26.1577 22.3517 25.5731 22.3517 24.9597C22.3517 23.577 21.7254 22.3406 20.7409 21.5189C21.7624 20.7364 22.4189 19.5034 22.4189 18.1114C22.4189 15.9402 20.7692 14.2957 19.3234 12.8546C18.5917 12.1252 17.8578 11.3899 17.2092 10.5847C16.6026 9.83147 15.9595 8.86424 15.6527 7.6842ZM14.3155 9.59971C14.1091 9.16022 13.9285 8.68244 13.7945 8.16725C13.4519 6.84947 13.7329 5.51615 14.4539 4.47971H11.4573C8.62961 4.47971 6.3373 6.77201 6.3373 9.59971V22.3997C6.3373 25.2274 8.6296 27.5197 11.4573 27.5197H17.8717C19.2856 27.5197 20.4317 26.3736 20.4317 24.9597C20.4317 23.5459 19.2856 22.3997 17.8717 22.3997H11.4573L11.4573 9.59971H14.3155Z" fill="#2563EB"/>
<path d="M168.614 10.1548H165.415V22.6451H168.614V10.1548Z" fill="#2563EB"/>
<path fill-rule="evenodd" clip-rule="evenodd" d="M190.178 22.6451V10.1548H186.98V14.3126C186.385 13.6842 185.544 13.37 184.455 13.37C183.625 13.37 182.867 13.5607 182.183 13.9423C181.498 14.3238 180.954 14.8737 180.55 15.592C180.157 16.299 179.961 17.1238 179.961 18.0665C179.961 19.0091 180.157 19.8396 180.55 20.5578C180.954 21.276 181.498 21.8315 182.183 22.2243C182.867 22.6059 183.625 22.7966 184.455 22.7966C185.645 22.7966 186.537 22.4431 187.132 21.7361V22.6451H190.178ZM186.492 19.6825C186.133 20.064 185.678 20.2548 185.128 20.2548C184.567 20.2548 184.107 20.064 183.748 19.6825C183.389 19.2897 183.209 18.751 183.209 18.0665C183.209 17.3931 183.389 16.8657 183.748 16.4841C184.107 16.1026 184.567 15.9118 185.128 15.9118C185.69 15.9118 186.144 16.1026 186.492 16.4841C186.851 16.8657 187.031 17.3931 187.031 18.0665C187.031 18.751 186.851 19.2897 186.492 19.6825Z" fill="#2563EB"/>
<path d="M250.5 10.1548H247.302V22.6451H250.5V10.1548Z" fill="#2563EB"/>
<path fill-rule="evenodd" clip-rule="evenodd" d="M241.542 13.37C243.057 13.37 244.213 13.7179 245.009 14.4136C245.806 15.0982 246.205 16.1531 246.205 17.5783V22.6452H243.225V21.4668C242.765 22.3534 241.867 22.7967 240.532 22.7967C239.825 22.7967 239.213 22.6732 238.697 22.4263C238.181 22.1794 237.788 21.8484 237.518 21.4331C237.26 21.0067 237.131 20.5241 237.131 19.9855C237.131 19.1214 237.462 18.4536 238.124 17.9823C238.787 17.4998 239.808 17.2585 241.188 17.2585H243.006C242.95 16.2934 242.305 15.8108 241.07 15.8108C240.633 15.8108 240.189 15.8837 239.741 16.0296C239.292 16.1643 238.91 16.3551 238.596 16.602L237.518 14.4305C238.023 14.0938 238.635 13.8357 239.353 13.6561C240.083 13.4654 240.812 13.37 241.542 13.37ZM241.424 20.7766C241.794 20.7766 242.12 20.6869 242.4 20.5073C242.681 20.3278 242.883 20.064 243.006 19.7161V18.925H241.626C240.694 18.925 240.229 19.2336 240.229 19.8508C240.229 20.1314 240.335 20.3558 240.549 20.5241C240.762 20.6925 241.053 20.7766 241.424 20.7766Z" fill="#2563EB"/>
<path fill-rule="evenodd" clip-rule="evenodd" d="M232.391 13.37C233.222 13.37 233.973 13.5664 234.647 13.9591C235.331 14.3407 235.87 14.8906 236.263 15.6088C236.667 16.3158 236.869 17.1406 236.869 18.0833C236.869 19.026 236.667 19.8564 236.263 20.5746C235.87 21.2817 235.331 21.8315 234.647 22.2243C233.973 22.6059 233.222 22.7967 232.391 22.7967C231.325 22.7967 230.478 22.4768 229.849 21.8372V25.9108H226.651V13.5215H229.698V14.4305C230.293 13.7235 231.19 13.37 232.391 13.37ZM231.718 20.2548C232.279 20.2548 232.739 20.064 233.098 19.6825C233.457 19.2897 233.637 18.7566 233.637 18.0833C233.637 17.41 233.457 16.8825 233.098 16.501C232.739 16.1082 232.279 15.9118 231.718 15.9118C231.157 15.9118 230.697 16.1082 230.337 16.501C229.978 16.8825 229.799 17.41 229.799 18.0833C229.799 18.7566 229.978 19.2897 230.337 19.6825C230.697 20.064 231.157 20.2548 231.718 20.2548Z" fill="#2563EB"/>
<path d="M225.096 13.5215V22.6452H222.049V21.6688C221.712 22.0392 221.308 22.3197 220.837 22.5105C220.366 22.7013 219.866 22.7967 219.339 22.7967C218.161 22.7967 217.218 22.4488 216.511 21.753C215.815 21.0572 215.467 20.0136 215.467 18.622V13.5215H218.666V18.1002C218.666 18.7847 218.795 19.2841 219.053 19.5983C219.311 19.9126 219.687 20.0697 220.181 20.0697C220.686 20.0697 221.095 19.8957 221.409 19.5478C221.735 19.1887 221.898 18.6444 221.898 17.915V13.5215H225.096Z" fill="#2563EB"/>
<path d="M211.589 14.6156C211.915 14.2004 212.336 13.8918 212.852 13.6898C213.379 13.4766 213.98 13.37 214.653 13.37V16.2485C214.361 16.2148 214.12 16.198 213.929 16.198C213.245 16.198 212.706 16.3831 212.313 16.7535C211.932 17.1238 211.741 17.6905 211.741 18.4536V22.6452H208.543V13.5215H211.589V14.6156Z" fill="#2563EB"/>
<path fill-rule="evenodd" clip-rule="evenodd" d="M195.292 10.8618H200.864C202.154 10.8618 203.299 11.1031 204.298 11.5856C205.296 12.0682 206.071 12.7527 206.621 13.6393C207.171 14.5258 207.446 15.5639 207.446 16.7535C207.446 17.943 207.171 18.9811 206.621 19.8676C206.071 20.7542 205.296 21.4387 204.298 21.9213C203.299 22.4039 202.154 22.6451 200.864 22.6451H195.292V10.8618ZM200.729 19.9855C201.739 19.9855 202.547 19.6993 203.153 19.127C203.77 18.5546 204.079 17.7635 204.079 16.7535C204.079 15.7435 203.77 14.9523 203.153 14.38C202.547 13.8076 201.739 13.5214 200.729 13.5214H198.625V19.9855H200.729Z" fill="#2563EB"/>
<path fill-rule="evenodd" clip-rule="evenodd" d="M179.462 18.8913C179.496 18.3863 179.513 18.1226 179.513 18.1001C179.513 17.1238 179.294 16.2821 178.856 15.5751C178.43 14.8569 177.846 14.3126 177.106 13.9423C176.365 13.5607 175.54 13.37 174.631 13.37C173.677 13.37 172.819 13.572 172.056 13.976C171.293 14.38 170.692 14.9411 170.255 15.6593C169.828 16.3663 169.615 17.1687 169.615 18.0665C169.615 18.9755 169.834 19.7891 170.271 20.5073C170.72 21.2255 171.349 21.7867 172.157 22.1907C172.965 22.5947 173.902 22.7967 174.968 22.7967C176.674 22.7967 177.97 22.3029 178.856 21.3153L177.173 19.5646C176.848 19.8452 176.522 20.0472 176.197 20.1706C175.883 20.2941 175.507 20.3558 175.069 20.3558C174.485 20.3558 173.997 20.2324 173.604 19.9855C173.223 19.7274 172.965 19.3626 172.83 18.8913H179.462ZM173.402 16.0633C173.739 15.7827 174.154 15.6425 174.648 15.6425C175.142 15.6425 175.551 15.7827 175.877 16.0633C176.214 16.3439 176.427 16.7254 176.517 17.208H172.78C172.869 16.7254 173.077 16.3439 173.402 16.0633Z" fill="#2563EB"/>
<path fill-rule="evenodd" clip-rule="evenodd" d="M159.956 13.37C160.787 13.37 161.538 13.5664 162.212 13.9591C162.896 14.3407 163.435 14.8906 163.828 15.6088C164.232 16.3158 164.434 17.1406 164.434 18.0833C164.434 19.026 164.232 19.8564 163.828 20.5746C163.435 21.2817 162.896 21.8315 162.212 22.2243C161.538 22.6059 160.787 22.7967 159.956 22.7967C158.89 22.7967 158.043 22.4768 157.414 21.8372V25.9108H154.216V13.5215H157.263V14.4305C157.858 13.7235 158.755 13.37 159.956 13.37ZM159.283 20.2548C159.844 20.2548 160.304 20.064 160.663 19.6825C161.022 19.2897 161.202 18.7566 161.202 18.0833C161.202 17.41 161.022 16.8825 160.663 16.501C160.304 16.1082 159.844 15.9118 159.283 15.9118C158.722 15.9118 158.262 16.1082 157.902 16.501C157.543 16.8825 157.364 17.41 157.364 18.0833C157.364 18.7566 157.543 19.2897 157.902 19.6825C158.262 20.064 158.722 20.2548 159.283 20.2548Z" fill="#2563EB"/>
<path d="M152.661 13.5215V22.6452H149.614V21.6688C149.277 22.0392 148.873 22.3197 148.402 22.5105C147.931 22.7013 147.431 22.7967 146.904 22.7967C145.725 22.7967 144.783 22.4488 144.076 21.753C143.38 21.0572 143.032 20.0136 143.032 18.622V13.5215H146.23V18.1002C146.23 18.7847 146.36 19.2841 146.618 19.5983C146.876 19.9126 147.252 20.0697 147.745 20.0697C148.25 20.0697 148.66 19.8957 148.974 19.5478C149.3 19.1887 149.462 18.6444 149.462 17.915V13.5215H152.661Z" fill="#2563EB"/>
<path fill-rule="evenodd" clip-rule="evenodd" d="M136.938 22.7967C135.962 22.7967 135.081 22.5947 134.295 22.1907C133.51 21.7867 132.893 21.2255 132.444 20.5073C132.006 19.7891 131.787 18.9755 131.787 18.0665C131.787 17.1687 132.006 16.3607 132.444 15.6425C132.893 14.9242 133.504 14.3687 134.278 13.976C135.064 13.572 135.951 13.37 136.938 13.37C137.926 13.37 138.812 13.572 139.598 13.976C140.383 14.3687 140.995 14.9242 141.433 15.6425C141.87 16.3495 142.089 17.1575 142.089 18.0665C142.089 18.9755 141.87 19.7891 141.433 20.5073C140.995 21.2255 140.383 21.7867 139.598 22.1907C138.812 22.5947 137.926 22.7967 136.938 22.7967ZM136.938 20.2548C137.499 20.2548 137.959 20.064 138.318 19.6825C138.678 19.2897 138.857 18.751 138.857 18.0665C138.857 17.3931 138.678 16.8657 138.318 16.4841C137.959 16.1026 137.499 15.9118 136.938 15.9118C136.377 15.9118 135.917 16.1026 135.558 16.4841C135.199 16.8657 135.019 17.3931 135.019 18.0665C135.019 18.751 135.199 19.2897 135.558 19.6825C135.917 20.064 136.377 20.2548 136.938 20.2548Z" fill="#2563EB"/>
<path d="M127.483 22.7967C126.473 22.7967 125.57 22.5947 124.773 22.1907C123.976 21.7867 123.353 21.2255 122.904 20.5073C122.467 19.7891 122.248 18.9755 122.248 18.0665C122.248 17.1575 122.467 16.3495 122.904 15.6425C123.353 14.9242 123.976 14.3687 124.773 13.976C125.57 13.572 126.473 13.37 127.483 13.37C128.516 13.37 129.408 13.5944 130.16 14.0433C130.912 14.481 131.445 15.0926 131.759 15.8781L129.284 17.1406C128.869 16.3214 128.263 15.9118 127.466 15.9118C126.894 15.9118 126.417 16.1026 126.035 16.4841C125.665 16.8657 125.48 17.3931 125.48 18.0665C125.48 18.751 125.665 19.2897 126.035 19.6825C126.417 20.064 126.894 20.2548 127.466 20.2548C128.263 20.2548 128.869 19.8452 129.284 19.026L131.759 20.2885C131.445 21.074 130.912 21.6913 130.16 22.1402C129.408 22.5778 128.516 22.7967 127.483 22.7967Z" fill="#2563EB"/>
<path fill-rule="evenodd" clip-rule="evenodd" d="M121.851 18.1001C121.851 18.1226 121.834 18.3863 121.8 18.8913H115.168C115.303 19.3626 115.561 19.7274 115.942 19.9855C116.335 20.2324 116.823 20.3558 117.407 20.3558C117.844 20.3558 118.22 20.2941 118.535 20.1706C118.86 20.0472 119.185 19.8452 119.511 19.5646L121.194 21.3153C120.308 22.3029 119.011 22.7967 117.306 22.7967C116.24 22.7967 115.303 22.5947 114.495 22.1907C113.687 21.7867 113.058 21.2255 112.609 20.5073C112.172 19.7891 111.953 18.9755 111.953 18.0665C111.953 17.1687 112.166 16.3663 112.592 15.6593C113.03 14.9411 113.63 14.38 114.394 13.976C115.157 13.572 116.015 13.37 116.969 13.37C117.878 13.37 118.703 13.5607 119.444 13.9423C120.184 14.3126 120.768 14.8569 121.194 15.5751C121.632 16.2821 121.851 17.1238 121.851 18.1001ZM116.986 15.6425C116.492 15.6425 116.077 15.7827 115.74 16.0633C115.415 16.3439 115.207 16.7254 115.117 17.208H118.854C118.765 16.7254 118.551 16.3439 118.215 16.0633C117.889 15.7827 117.48 15.6425 116.986 15.6425Z" fill="#2563EB"/>
<path fill-rule="evenodd" clip-rule="evenodd" d="M99.2742 10.8618H104.846C106.137 10.8618 107.281 11.1031 108.28 11.5856C109.279 12.0682 110.053 12.7527 110.603 13.6393C111.153 14.5258 111.428 15.5639 111.428 16.7535C111.428 17.943 111.153 18.9811 110.603 19.8676C110.053 20.7542 109.279 21.4387 108.28 21.9213C107.281 22.4039 106.137 22.6451 104.846 22.6451H99.2742V10.8618ZM104.711 19.9855C105.721 19.9855 106.529 19.6993 107.135 19.127C107.753 18.5546 108.061 17.7635 108.061 16.7535C108.061 15.7435 107.753 14.9523 107.135 14.38C106.529 13.8076 105.721 13.5214 104.711 13.5214H102.607V19.9855H104.711Z" fill="#2563EB"/>
<path d="M90.3292 22.7967C89.5661 22.7967 88.8142 22.7125 88.0735 22.5442C87.3328 22.3646 86.7381 22.1345 86.2892 21.854L87.2487 19.6656C87.6639 19.9238 88.1577 20.1314 88.73 20.2885C89.3023 20.4344 89.8691 20.5073 90.4302 20.5073C90.9464 20.5073 91.3111 20.4568 91.5243 20.3558C91.7488 20.2436 91.861 20.0865 91.861 19.8845C91.861 19.6825 91.7263 19.5422 91.457 19.4636C91.1989 19.3739 90.7837 19.2897 90.2113 19.2111C89.4819 19.1214 88.8591 19.0035 88.3428 18.8576C87.8378 18.7118 87.4002 18.4424 87.0298 18.0496C86.6595 17.6569 86.4743 17.107 86.4743 16.4C86.4743 15.8164 86.6483 15.3002 86.9962 14.8513C87.3441 14.3912 87.8491 14.0321 88.5112 13.774C89.1845 13.5046 89.9869 13.37 90.9183 13.37C91.5805 13.37 92.237 13.4373 92.8878 13.572C93.5387 13.7066 94.083 13.8974 94.5207 14.1443L93.5612 16.3158C92.7532 15.8669 91.8778 15.6425 90.9352 15.6425C90.4302 15.6425 90.0598 15.7042 89.8242 15.8276C89.5885 15.9399 89.4707 16.0914 89.4707 16.2821C89.4707 16.4954 89.5997 16.6469 89.8578 16.7366C90.116 16.8152 90.5424 16.8994 91.1372 16.9891C91.8891 17.1014 92.5119 17.2304 93.0057 17.3763C93.4995 17.5222 93.9259 17.7915 94.285 18.1843C94.6553 18.5659 94.8405 19.1045 94.8405 19.8003C94.8405 20.3726 94.6666 20.8889 94.3187 21.349C93.9708 21.7979 93.4546 22.1514 92.77 22.4095C92.0967 22.6676 91.2831 22.7967 90.3292 22.7967Z" fill="#2563EB"/>
<path d="M85.4578 13.5215V22.6452H82.411V21.6688C82.0743 22.0392 81.6703 22.3197 81.199 22.5105C80.7276 22.7013 80.2282 22.7967 79.7008 22.7967C78.5224 22.7967 77.5798 22.4488 76.8728 21.753C76.177 21.0572 75.8291 20.0136 75.8291 18.622V13.5215H79.0275V18.1002C79.0275 18.7847 79.1565 19.2841 79.4146 19.5983C79.6727 19.9126 80.0487 20.0697 80.5425 20.0697C81.0475 20.0697 81.4571 19.8957 81.7713 19.5478C82.0967 19.1887 82.2595 18.6444 82.2595 17.915V13.5215H85.4578Z" fill="#2563EB"/>
<path fill-rule="evenodd" clip-rule="evenodd" d="M70.4036 13.37C71.234 13.37 71.9859 13.5664 72.6592 13.9591C73.3438 14.3407 73.8825 14.8906 74.2752 15.6088C74.6792 16.3158 74.8812 17.1406 74.8812 18.0833C74.8812 19.026 74.6792 19.8564 74.2752 20.5746C73.8825 21.2817 73.3438 21.8315 72.6592 22.2243C71.9859 22.6059 71.234 22.7967 70.4036 22.7967C69.3375 22.7967 68.4902 22.4768 67.8617 21.8372V25.9108H64.6634V13.5215H67.7102V14.4305C68.305 13.7235 69.2028 13.37 70.4036 13.37ZM69.7302 20.2548C70.2914 20.2548 70.7515 20.064 71.1106 19.6825C71.4697 19.2897 71.6492 18.7566 71.6492 18.0833C71.6492 17.41 71.4697 16.8825 71.1106 16.501C70.7515 16.1082 70.2914 15.9118 69.7302 15.9118C69.1691 15.9118 68.709 16.1082 68.3499 16.501C67.9908 16.8825 67.8112 17.41 67.8112 18.0833C67.8112 18.7566 67.9908 19.2897 68.3499 19.6825C68.709 20.064 69.1691 20.2548 69.7302 20.2548Z" fill="#2563EB"/>
<path d="M63.1082 13.5215V22.6452H60.0614V21.6688C59.7247 22.0392 59.3207 22.3197 58.8494 22.5105C58.3781 22.7013 57.8787 22.7967 57.3512 22.7967C56.1729 22.7967 55.2302 22.4488 54.5232 21.753C53.8274 21.0572 53.4795 20.0136 53.4795 18.622V13.5215H56.6779V18.1002C56.6779 18.7847 56.8069 19.2841 57.0651 19.5983C57.3232 19.9126 57.6991 20.0697 58.1929 20.0697C58.6979 20.0697 59.1075 19.8957 59.4217 19.5478C59.7472 19.1887 59.9099 18.6444 59.9099 17.915V13.5215H63.1082Z" fill="#2563EB"/>
<path d="M43.9283 10.8618H47.2613V20.0023H52.8837V22.6451H43.9283V10.8618Z" fill="#2563EB"/>
</svg>
